<svg width="16" height="17" viewBox="0 0 16 17" fill="none" xmlns="http://www.w3.org/2000/svg">
<path d="M1.54446 11.3979V2.13113H0V0.58667H2.31669C2.74318 0.58667 3.08892 0.932413 3.08892 1.3589V10.6257H12.6942L14.2387 4.44782H4.63338V2.90336H15.2278C15.6543 2.90336 16 3.2491 16 3.67559C16 3.73873 15.9923 3.80163 15.9769 3.86289L14.0463 11.5852C13.9605 11.929 13.6516 12.1701 13.2972 12.1701H2.31669C1.8902 12.1701 1.54446 11.8244 1.54446 11.3979ZM3.08892 16.8035C2.23594 16.8035 1.54446 16.112 1.54446 15.259C1.54446 14.406 2.23594 13.7146 3.08892 13.7146C3.9419 13.7146 4.63338 14.406 4.63338 15.259C4.63338 16.112 3.9419 16.8035 3.08892 16.8035ZM12.3557 16.8035C11.5027 16.8035 10.8112 16.112 10.8112 15.259C10.8112 14.406 11.5027 13.7146 12.3557 13.7146C13.2087 13.7146 13.9002 14.406 13.9002 15.259C13.9002 16.112 13.2087 16.8035 12.3557 16.8035Z" fill="#151515"/>
</svg>
