<svg width="17" height="17" viewBox="0 0 17 17" fill="none" xmlns="http://www.w3.org/2000/svg">
<g clip-path="url(#clip0_2455_956)">
<path d="M15.3828 5.26989C14.9775 4.30989 14.4068 3.46189 13.6708 2.72589C12.9348 1.98989 12.0815 1.42456 11.1108 1.02989C10.1188 0.603225 9.0815 0.389892 7.99884 0.389892C6.91617 0.389892 5.87884 0.603225 4.88684 1.02989C3.92684 1.42456 3.07884 1.98989 2.34284 2.72589C1.60684 3.46189 1.03617 4.30989 0.630836 5.26989C0.214836 6.26189 0.00683594 7.29923 0.00683594 8.38189C0.00683594 9.46456 0.214836 10.5019 0.630836 11.4939C1.03617 12.4539 1.60684 13.3019 2.34284 14.0379C3.07884 14.7739 3.92684 15.3446 4.88684 15.7499C5.87884 16.1766 6.91617 16.3899 7.99884 16.3899C9.0815 16.3899 10.1188 16.1766 11.1108 15.7499C12.0815 15.3552 12.9348 14.7872 13.6708 14.0459C14.4068 13.3046 14.9775 12.4539 15.3828 11.4939C15.8095 10.5019 16.0228 9.46723 16.0228 8.38989C16.0228 7.31256 15.8095 6.27789 15.3828 5.28589V5.26989ZM14.1028 11.9099C13.4735 12.9979 12.6148 13.8592 11.5268 14.4939C10.4388 15.1286 9.2655 15.4406 8.00684 15.4299C7.0575 15.4299 6.1455 15.2432 5.27084 14.8699C4.42817 14.5072 3.6815 14.0032 3.03084 13.3579C2.38017 12.7126 1.87884 11.9686 1.52684 11.1259C1.1535 10.2512 0.972169 9.33389 0.982836 8.37389C0.972169 7.11523 1.2815 5.94189 1.91084 4.85389C2.54017 3.76589 3.39617 2.90723 4.47884 2.27789C5.5615 1.64856 6.73484 1.33389 7.99884 1.33389C9.26284 1.33389 10.4388 1.65123 11.5268 2.28589C12.6148 2.92056 13.4762 3.77923 14.1108 4.86189C14.7455 5.94456 15.0628 7.11789 15.0628 8.38189C15.0628 9.64589 14.7428 10.8219 14.1028 11.9099ZM8.50284 8.30989V3.78189C8.50284 3.64323 8.45217 3.52589 8.35084 3.42989C8.2495 3.33389 8.1295 3.28589 7.99084 3.28589C7.85217 3.28589 7.7375 3.33389 7.64684 3.42989C7.55617 3.52589 7.51084 3.64323 7.51084 3.78189V8.38989L7.52684 8.45389C7.5055 8.61389 7.5535 8.74723 7.67084 8.85389L10.2788 11.4619C10.3748 11.5472 10.4868 11.5899 10.6148 11.5899C10.7428 11.5899 10.8548 11.5446 10.9508 11.4539C11.0468 11.3632 11.0948 11.2512 11.0948 11.1179C11.0948 10.9846 11.0468 10.8699 10.9508 10.7739L8.50284 8.30989Z" fill="#151515"/>
</g>
<defs>
<clipPath id="clip0_2455_956">
<rect width="16.03" height="16" fill="white" transform="matrix(1 0 0 -1 0 16.3899)"/>
</clipPath>
</defs>
</svg>
