<svg width="39" height="31" viewBox="0 0 39 31" fill="none" xmlns="http://www.w3.org/2000/svg">
<g clip-path="url(#clip0_2456_1778)">
<mask id="mask0_2456_1778" style="mask-type:luminance" maskUnits="userSpaceOnUse" x="0" y="0" width="39" height="31">
<path d="M0.5 0.428955H38.5V30.569H0.5V0.428955Z" fill="white"/>
</mask>
<g mask="url(#mask0_2456_1778)">
<path fill-rule="evenodd" clip-rule="evenodd" d="M4.3 27.179H2.5C1.9 27.179 1.4 26.979 1.1 26.679C0.7 26.279 0.5 25.779 0.5 25.279V7.279C0.5 6.679 0.7 6.179 1.1 5.879C1.4 5.479 1.9 5.279 2.5 5.279H5.8C6.2 4.479 6.73333 3.779 7.4 3.179C9.1 1.479 11.4 0.479004 14 0.479004C16.6 0.479004 18.9 1.479 20.6 3.179C21.2 3.779 21.7333 4.479 22.2 5.279H25.5C26 5.279 26.5 5.479 26.9 5.879C27.2 6.179 27.4 6.679 27.4 7.279V12.279H32.5C33.3 12.279 34.1 12.579 34.8 13.079C35.5 13.679 36 14.479 36.2 15.279C36.9333 18.0123 37.6333 20.7123 38.3 23.379C38.3667 23.6457 38.4333 23.879 38.5 24.079C38.5 24.779 38.3 25.479 37.9 26.079C37.5 26.579 36.9 26.879 36.2 27.079C36.2 27.079 36.1667 27.079 36.1 27.079C36 27.979 35.6 28.779 35 29.279C34.3 30.079 33.2 30.479 32.1 30.479C31 30.479 30 30.079 29.3 29.279C28.7 28.779 28.3 28.079 28.1 27.179H12.2C12.1 28.079 11.7 28.779 11.1 29.279C10.4 30.079 9.4 30.479 8.3 30.479C7.1 30.479 6.1 30.079 5.4 29.279C4.8 28.779 4.4 28.079 4.3 27.179ZM11.8 17.879C11.7 18.279 11.3 18.479 10.9 18.379C9.6 17.879 8.4 17.179 7.4 16.179C5.7 14.479 4.6 12.179 4.6 9.679C4.6 8.679 4.76667 7.71234 5.1 6.779H2.5C2.36667 6.779 2.23333 6.81234 2.1 6.879C2.03333 7.01234 2 7.14567 2 7.279V25.279C2 25.4123 2.03333 25.5123 2.1 25.579C2.23333 25.7123 2.36667 25.779 2.5 25.779H4.3C4.4 24.979 4.8 24.279 5.4 23.679C6.1 22.979 7.1 22.479 8.3 22.479C9.4 22.479 10.4 22.979 11.1 23.679C11.7 24.279 12.1 24.979 12.2 25.779H26V7.279C26 7.14567 25.9333 7.01234 25.8 6.879C25.7333 6.81234 25.6333 6.779 25.5 6.779H22.8C23.1333 7.71234 23.3 8.679 23.3 9.679C23.3 12.179 22.3 14.479 20.6 16.179C19.6 17.179 18.5 17.879 17.2 18.379C16.8 18.479 16.4 18.279 16.2 17.879C16.1 17.479 16.3 17.079 16.6 16.979C17.7 16.579 18.7 15.979 19.5 15.179C20.9 13.779 21.8 11.779 21.8 9.679C21.8 7.579 20.9 5.579 19.5 4.179C18.1 2.779 16.1 1.979 14 1.979C11.8 1.979 9.8 2.779 8.4 4.179C7 5.579 6.1 7.579 6.1 9.679C6.1 11.779 7 13.779 8.4 15.179C9.3 15.979 10.3 16.579 11.4 16.979C11.8 17.079 11.9 17.579 11.8 17.879ZM14 18.879C13.6 18.879 13.2 18.579 13.2 18.179C13.2 17.779 13.6 17.379 14 17.379C14.4 17.379 14.7 17.779 14.7 18.179C14.7 18.579 14.4 18.879 14 18.879ZM13.5 3.479C13.9 3.479 14.2 3.779 14.2 4.179V8.979H16.8C17.3 8.979 17.6 9.279 17.6 9.679C17.6 10.079 17.3 10.379 16.8 10.379H13.5C13.1 10.379 12.7 10.079 12.7 9.679V4.179C12.7 3.779 13.1 3.479 13.5 3.479ZM36.1 25.579C36.3667 25.5123 36.5667 25.379 36.7 25.179C36.9 24.9123 37 24.579 37 24.179C37 24.0457 36.9667 23.9123 36.9 23.779L35.8 19.479H27.4V25.779H28.1C28.3 24.979 28.7 24.179 29.3 23.679C30 22.979 31 22.479 32.1 22.479C33.2 22.479 34.3 22.979 35 23.679C35.5 24.179 35.9 24.879 36.1 25.579ZM33.9 24.679C33.5 24.279 32.8 23.979 32.1 23.979C31.4 23.979 30.8 24.279 30.3 24.679C29.9 25.179 29.6 25.779 29.6 26.479C29.6 27.179 29.9 27.779 30.3 28.279C30.8 28.779 31.4 28.979 32.1 28.979C32.8 28.979 33.5 28.779 33.9 28.279C34.4 27.779 34.7 27.179 34.7 26.479C34.7 25.779 34.4 25.179 33.9 24.679ZM10.1 24.679C9.6 24.279 9 23.979 8.3 23.979C7.6 23.979 6.9 24.279 6.4 24.679C6 25.179 5.7 25.779 5.7 26.479C5.7 27.179 6 27.779 6.4 28.279C6.9 28.779 7.6 28.979 8.3 28.979C9 28.979 9.6 28.779 10.1 28.279C10.5 27.779 10.8 27.179 10.8 26.479C10.8 25.779 10.5 25.179 10.1 24.679ZM27.4 18.079H35.4L34.8 15.679C34.6 15.079 34.3 14.579 33.8 14.279C33.4 13.879 33 13.679 32.5 13.679H27.4V18.079Z" fill="black"/>
</g>
</g>
<defs>
<clipPath id="clip0_2456_1778">
<rect width="38" height="30" fill="white" transform="translate(0.5 0.479004)"/>
</clipPath>
</defs>
</svg>
