<svg width="16" height="16" viewBox="0 0 16 16" fill="none" xmlns="http://www.w3.org/2000/svg">
<path d="M8.00065 1.52407C9.87981 -0.162721 12.7838 -0.106722 14.5938 1.70713C16.4039 3.52099 16.4661 6.41076 14.7826 8.29552L7.99977 15.089L1.21708 8.29552C-0.466353 6.41076 -0.403426 3.51642 1.40586 1.70713C3.21719 -0.104202 6.11604 -0.165225 8.00065 1.52407ZM13.4613 2.8373C12.2621 1.6356 10.3259 1.58685 9.06943 2.71472L8.00137 3.6734L6.93275 2.71547C5.67268 1.58602 3.73998 1.63571 2.53721 2.83848C1.34544 4.03025 1.28561 5.93901 2.3839 7.1997L7.99977 12.8245L13.6158 7.1997C14.7145 5.93853 14.6549 4.0334 13.4613 2.8373Z" fill="#151515"/>
</svg>
