<svg width="10" height="11" viewBox="0 0 10 11" fill="none" xmlns="http://www.w3.org/2000/svg">
<path d="M5.0001 0.0212402C3.64215 0.0212402 3.47187 0.0270011 2.93855 0.0513246C2.40635 0.0756035 2.04288 0.16014 1.72483 0.283723C1.39603 0.411504 1.11719 0.582483 0.839222 0.860447C0.561243 1.13841 0.390263 1.41728 0.262498 1.74608C0.138885 2.06412 0.0543782 2.42759 0.0300695 2.95979C0.00574595 3.49311 0 3.66339 0 5.02134C0 6.37926 0.00574595 6.54954 0.0300695 7.08285C0.0543782 7.61505 0.138885 7.97852 0.262498 8.29656C0.390278 8.62536 0.561258 8.9042 0.839222 9.1822C1.1172 9.46016 1.39603 9.63114 1.72483 9.75892C2.04288 9.8825 2.40635 9.96702 2.93855 9.99132C3.47187 10.0156 3.64215 10.0214 5.0001 10.0214C6.35802 10.0214 6.5283 10.0156 7.06161 9.99132C7.59381 9.96704 7.95728 9.8825 8.27532 9.75892C8.60412 9.63114 8.88296 9.46016 9.16096 9.1822C9.43892 8.9042 9.6099 8.62536 9.73768 8.29656C9.86126 7.97852 9.9458 7.61505 9.97008 7.08285C9.9944 6.54954 10.0002 6.37926 10.0002 5.02134C10.0002 3.66339 9.9944 3.49311 9.97008 2.95979C9.9458 2.42759 9.86126 2.06412 9.73768 1.74608C9.6099 1.41728 9.43892 1.13841 9.16096 0.860447C8.88296 0.582483 8.60412 0.411504 8.27532 0.283723C7.95728 0.16014 7.59381 0.0756035 7.06161 0.0513246C6.5283 0.0270011 6.35802 0.0212402 5.0001 0.0212402ZM5.0001 0.922149C6.33515 0.922149 6.4933 0.927255 7.02054 0.951311C7.50806 0.973535 7.7728 1.05499 7.94898 1.12347C8.18239 1.21418 8.34895 1.32252 8.5239 1.49749C8.69888 1.67246 8.80722 1.83903 8.89794 2.07241C8.96641 2.2486 9.04787 2.51336 9.07009 3.00086C9.09415 3.5281 9.09925 3.68625 9.09925 5.02132C9.09925 6.35639 9.09415 6.51454 9.07009 7.04178C9.04787 7.5293 8.96641 7.79404 8.89794 7.97022C8.80722 8.20363 8.69888 8.37019 8.5239 8.54514C8.34895 8.72012 8.18237 8.82846 7.94899 8.91918C7.7728 8.98765 7.50804 9.06911 7.02054 9.09133C6.49339 9.11539 6.33526 9.12049 5.00008 9.12049C3.66491 9.12049 3.5068 9.11539 2.97962 9.09132C2.49211 9.06911 2.22736 8.98765 2.05119 8.91918C1.81778 8.82846 1.65122 8.72012 1.47626 8.54514C1.30129 8.37019 1.19294 8.20361 1.10223 7.97023C1.03375 7.79404 0.95231 7.52928 0.93007 7.04178C0.906015 6.51454 0.900909 6.35639 0.900909 5.02132C0.900909 3.68625 0.906015 3.5281 0.93007 3.00086C0.95231 2.51335 1.03375 2.2486 1.10223 2.07243C1.19294 1.83902 1.30129 1.67246 1.47625 1.4975C1.65122 1.32252 1.81779 1.21418 2.05117 1.12347C2.22736 1.05499 2.49212 0.973535 2.97962 0.951311C3.50686 0.927255 3.66501 0.922149 5.00008 0.922149" fill="#0C0E12"/>
<path d="M5.00024 6.68846C4.07973 6.68846 3.33353 5.94226 3.33353 5.02178C3.33353 4.10126 4.07973 3.35506 5.00024 3.35506C5.92072 3.35506 6.66692 4.10126 6.66692 5.02178C6.66692 5.94226 5.92072 6.68846 5.00024 6.68846ZM5.00024 2.45415C3.58216 2.45415 2.43262 3.6037 2.43262 5.02178C2.43262 6.43982 3.58216 7.58937 5.00024 7.58937C6.41828 7.58937 7.56783 6.43982 7.56783 5.02178C7.56783 3.6037 6.41828 2.45415 5.00024 2.45415ZM8.2693 2.35271C8.2693 2.6841 8.00065 2.95271 7.66928 2.95271C7.33792 2.95271 7.06927 2.6841 7.06927 2.35271C7.06927 2.02133 7.33792 1.75269 7.66928 1.75269C8.00065 1.75269 8.2693 2.02133 8.2693 2.35271Z" fill="#0C0E12"/>
</svg>
