<svg width="10" height="11" viewBox="0 0 10 11" fill="none" xmlns="http://www.w3.org/2000/svg">
<path fill-rule="evenodd" clip-rule="evenodd" d="M3.7145 3.50574H5.5715V4.43074C5.839 3.89874 6.525 3.42074 7.5555 3.42074C9.531 3.42074 10 4.47974 10 6.42274V10.0212H8V6.86524C8 5.75874 7.7325 5.13474 7.0515 5.13474C6.107 5.13474 5.7145 5.80724 5.7145 6.86474V10.0212H3.7145V3.50574ZM0.285 9.93624H2.285V3.42074H0.285V9.93624ZM2.5715 1.29624C2.57157 1.46388 2.53833 1.62986 2.47369 1.78453C2.40906 1.93921 2.31433 2.0795 2.195 2.19724C1.9532 2.43755 1.62591 2.57207 1.285 2.57124C0.944695 2.57101 0.618155 2.43684 0.376 2.19774C0.257106 2.0796 0.162693 1.93915 0.0981718 1.78446C0.0336507 1.62976 0.000289566 1.46385 0 1.29624C0 0.95774 0.135 0.63374 0.3765 0.39474C0.618443 0.155319 0.94512 0.0210906 1.2855 0.0212404C1.6265 0.0212404 1.9535 0.15574 2.195 0.39474C2.436 0.63374 2.5715 0.95774 2.5715 1.29624Z" fill="#0C0E12"/>
</svg>
