<svg width="17" height="17" viewBox="0 0 17 17" fill="none" xmlns="http://www.w3.org/2000/svg">
<g clip-path="url(#clip0_2455_964)">
<path d="M13.0669 10.294C12.9175 10.134 12.7442 10.0087 12.5469 9.91801C12.3495 9.82734 12.1415 9.78201 11.9229 9.78201C11.7042 9.78201 11.4935 9.82734 11.2909 9.91801C11.0882 10.0087 10.9122 10.134 10.7629 10.294L9.69086 11.366L9.29086 11.142C9.19486 11.0993 9.13086 11.0673 9.09886 11.046C8.04286 10.3527 7.12019 9.51001 6.33086 8.51801C5.96819 8.08068 5.66419 7.60068 5.41886 7.07801C5.60019 6.90734 5.86153 6.65134 6.20286 6.31001C6.25619 6.24601 6.34686 6.15001 6.47486 6.02201C6.64553 5.87268 6.77619 5.69668 6.86686 5.49401C6.95753 5.29134 7.00286 5.07801 7.00286 4.85401C7.00286 4.63001 6.95753 4.41668 6.86686 4.21401C6.77619 4.01134 6.64553 3.83534 6.47486 3.68601L5.56286 2.75801C5.44553 2.66201 5.33886 2.55534 5.24286 2.43801C4.96553 2.16068 4.75219 1.95001 4.60286 1.80601C4.45353 1.66201 4.28286 1.54468 4.09086 1.45401C3.89886 1.36334 3.69619 1.31801 3.48286 1.31801C3.26953 1.31801 3.06153 1.36068 2.85886 1.44601C2.65619 1.53134 2.48019 1.65401 2.33086 1.81401L1.17886 2.98201C0.965528 3.19534 0.794861 3.43534 0.666861 3.70201C0.538861 3.96868 0.464194 4.25134 0.442861 4.55001C0.400194 5.41401 0.544195 6.24601 0.874861 7.04601C1.48286 8.63534 2.34153 10.0753 3.45086 11.366C4.91219 13.126 6.67753 14.5073 8.74686 15.51C9.68553 15.99 10.6775 16.278 11.7229 16.374L11.9309 16.39C12.3042 16.4007 12.6615 16.334 13.0029 16.19C13.3442 16.046 13.6375 15.8353 13.8829 15.558L13.8989 15.526C14.0802 15.3127 14.2775 15.11 14.4909 14.918C14.6295 14.79 14.7762 14.6487 14.9309 14.494C15.0855 14.3393 15.2082 14.1607 15.2989 13.958C15.3895 13.7553 15.4322 13.542 15.4269 13.318C15.4215 13.094 15.3735 12.8833 15.2829 12.686C15.1922 12.4887 15.0669 12.3153 14.9069 12.166L13.0669 10.294ZM14.2669 13.862C14.1389 14.0007 14.0002 14.1393 13.8509 14.278C13.6269 14.4913 13.4135 14.7153 13.2109 14.95C13.0509 15.1313 12.8589 15.2673 12.6349 15.358C12.4109 15.4487 12.1762 15.4887 11.9309 15.478H11.7869C10.8589 15.382 9.97886 15.1207 9.14686 14.694C7.20553 13.7553 5.54153 12.454 4.15486 10.79C3.10953 9.58468 2.29886 8.23534 1.72286 6.74201C1.43486 6.07001 1.31219 5.36601 1.35486 4.63001C1.37619 4.23534 1.53086 3.89934 1.81886 3.62201L2.97086 2.47001C3.10953 2.32068 3.28019 2.24068 3.48286 2.23001C3.68553 2.24068 3.85086 2.32068 3.97886 2.47001H3.99486L4.60286 3.07801C4.64553 3.13134 4.71486 3.20068 4.81086 3.28601L5.83486 4.32601C6.01619 4.45401 6.10686 4.62734 6.10686 4.84601C6.10686 5.06468 6.01619 5.23801 5.83486 5.36601L5.72286 5.47801C5.64819 5.56334 5.58953 5.62734 5.54686 5.67001L5.37086 5.84601C5.08286 6.13401 4.85886 6.34734 4.69886 6.48601C4.69886 6.49668 4.69886 6.50201 4.69886 6.50201H4.68286C4.57619 6.59801 4.50686 6.71534 4.47486 6.85401C4.44286 6.99268 4.45353 7.13134 4.50686 7.27001L4.52286 7.30201C4.80019 7.94201 5.16286 8.53401 5.61086 9.07801C6.45353 10.1553 7.45086 11.0673 8.60286 11.814C8.74153 11.8993 8.8802 11.974 9.01886 12.038L9.11486 12.086C9.2322 12.1393 9.3122 12.182 9.35486 12.214C9.36553 12.214 9.38153 12.2247 9.40286 12.246C9.50953 12.2993 9.62153 12.326 9.73886 12.326C9.94153 12.3153 10.1122 12.2353 10.2509 12.086L11.4029 10.934C11.5415 10.7847 11.7122 10.6993 11.9149 10.678C12.1069 10.6993 12.2669 10.7847 12.3949 10.934H12.4109L14.2669 12.79C14.4482 12.9287 14.5389 13.1073 14.5389 13.326C14.5389 13.5447 14.4482 13.7233 14.2669 13.862ZM9.06686 4.19801C9.97353 4.35801 10.7495 4.76068 11.3949 5.40601C12.0402 6.05134 12.4429 6.82734 12.6029 7.73401C12.6242 7.84068 12.6749 7.93134 12.7549 8.00601C12.8349 8.08068 12.9335 8.11801 13.0509 8.11801L13.1309 8.10201C13.2482 8.08068 13.3442 8.01934 13.4189 7.91801C13.4935 7.81668 13.5202 7.70201 13.4989 7.57401C13.3709 6.85934 13.1069 6.20068 12.7069 5.59801C12.3069 4.99534 11.8055 4.49401 11.2029 4.09401C10.6002 3.69401 9.94153 3.43001 9.22686 3.30201C9.09886 3.28068 8.9842 3.30734 8.88286 3.38201C8.78153 3.45668 8.7202 3.55534 8.69886 3.67801C8.67753 3.80068 8.70153 3.91268 8.77086 4.01401C8.8402 4.11534 8.93886 4.17668 9.06686 4.19801ZM16.3949 7.44601C16.1922 6.25134 15.7602 5.15801 15.0989 4.16601C14.4375 3.17401 13.6109 2.34734 12.6189 1.68601C11.6269 1.02468 10.5335 0.592676 9.33886 0.390009C9.25353 0.368676 9.1682 0.371342 9.08286 0.398009C8.99753 0.424676 8.92553 0.470009 8.86686 0.534009C8.8082 0.598009 8.77353 0.675342 8.76286 0.766009C8.7522 0.856676 8.76286 0.942009 8.79486 1.02201C8.82686 1.10201 8.8802 1.16868 8.95486 1.22201C9.02953 1.27534 9.10953 1.30201 9.19486 1.30201C10.2615 1.48334 11.2402 1.86734 12.1309 2.45401C13.0215 3.04068 13.7602 3.77934 14.3469 4.67001C14.9335 5.56068 15.3175 6.53934 15.4989 7.60601C15.5202 7.71268 15.5735 7.80068 15.6589 7.87001C15.7442 7.93934 15.8402 7.97401 15.9469 7.97401H16.0269C16.1549 7.95268 16.2535 7.89134 16.3229 7.79001C16.3922 7.68868 16.4162 7.57401 16.3949 7.44601Z" fill="#151515"/>
</g>
<defs>
<clipPath id="clip0_2455_964">
<rect width="15.99" height="16" fill="white" transform="matrix(1 0 0 -1 0.439941 16.3899)"/>
</clipPath>
</defs>
</svg>
