<svg width="39" height="34" viewBox="0 0 39 34" fill="none" xmlns="http://www.w3.org/2000/svg">
<g clip-path="url(#clip0_2456_1797)">
<mask id="mask0_2456_1797" style="mask-type:luminance" maskUnits="userSpaceOnUse" x="0" y="0" width="39" height="34">
<path d="M0.5 0.388916H38.5V33.5289H0.5V0.388916Z" fill="white"/>
</mask>
<g mask="url(#mask0_2456_1797)">
<path fill-rule="evenodd" clip-rule="evenodd" d="M4.10018 17.479C3.96685 17.6123 3.80018 17.679 3.60018 17.679C3.30018 17.679 3.10018 17.579 3.00018 17.379L0.700182 14.679C0.400182 14.379 0.500182 13.879 0.800182 13.679C1.10018 13.379 1.50018 13.379 1.80018 13.779L2.90018 15.079C3.40018 11.279 5.10018 7.879 7.70018 5.279C10.7002 2.279 14.9002 0.479004 19.5002 0.479004C23.4002 0.479004 27.0002 1.879 29.9002 4.079C32.8002 6.379 34.9002 9.679 35.7002 13.379C35.8002 13.779 35.6002 14.179 35.2002 14.279C34.8002 14.379 34.4002 14.079 34.3002 13.779C33.5002 10.279 31.6002 7.379 29.0002 5.279C26.4002 3.179 23.1002 1.979 19.5002 1.979C15.3002 1.979 11.5002 3.679 8.80018 6.379C6.40018 8.679 4.80018 11.779 4.40018 15.279L5.90018 14.079C6.20018 13.779 6.70018 13.879 6.90018 14.179C7.20018 14.479 7.20018 14.979 6.80018 15.179L4.10018 17.479ZM26.3002 15.479L27.1002 12.979H23.3002C22.8002 12.979 22.5002 12.679 22.5002 12.279C22.5002 11.879 22.8002 11.579 23.3002 11.579H28.1002C28.5002 11.579 28.9002 11.879 28.9002 12.279C28.9002 12.3457 28.8668 12.4457 28.8002 12.579L26.2002 20.479C26.1002 20.779 25.8002 20.979 25.5002 20.979H16.1002L16.5002 22.279H25.5002C26.2002 22.279 26.9002 22.579 27.4002 23.079C27.9002 23.579 28.2002 24.279 28.2002 24.979C28.2002 25.679 27.9002 26.379 27.4002 26.879C26.9002 27.379 26.3002 27.679 25.5002 27.679C24.8002 27.679 24.1002 27.379 23.6002 26.879C23.1002 26.379 22.8002 25.679 22.8002 24.979C22.8002 24.5123 22.9002 24.1123 23.1002 23.779H17.9002C18.1002 24.1123 18.2002 24.5123 18.2002 24.979C18.2002 25.679 17.9002 26.379 17.4002 26.879C16.9002 27.379 16.3002 27.679 15.5002 27.679C14.8002 27.679 14.1002 27.379 13.6002 26.879C13.1002 26.379 12.8002 25.679 12.8002 24.979C12.8002 24.279 13.1002 23.579 13.6002 23.079C14.0002 22.679 14.4002 22.479 15.0002 22.379C13.6668 18.3123 12.3335 14.279 11.0002 10.279H8.70018C8.30018 10.279 8.00018 9.879 8.00018 9.479C8.00018 9.079 8.30018 8.779 8.70018 8.779H11.5002C11.8002 8.779 12.1002 8.979 12.2002 9.279L13.0002 11.579H17.3002C17.7002 11.579 18.1002 11.879 18.1002 12.279C18.1002 12.679 17.7002 12.979 17.3002 12.979H13.4002L14.3002 15.479H26.3002ZM32.0002 19.779C31.8002 19.479 31.8002 18.979 32.1002 18.779L34.9002 16.479C35.0335 16.3457 35.2002 16.279 35.4002 16.279C35.6002 16.279 35.8002 16.379 36.0002 16.579L38.3002 19.279C38.5002 19.579 38.5002 20.079 38.2002 20.279C37.9002 20.579 37.4002 20.479 37.1002 20.179L36.0002 18.879C35.6002 22.679 33.8002 26.079 31.2002 28.679C28.2002 31.579 24.1002 33.479 19.5002 33.479C15.5002 33.479 11.9002 32.079 9.10018 29.879C6.20018 27.479 4.00018 24.279 3.20018 20.479C3.10018 20.079 3.40018 19.779 3.80018 19.679C4.20018 19.579 4.60018 19.779 4.70018 20.179C5.40018 23.579 7.30018 26.579 10.0002 28.679C12.6002 30.779 15.9002 31.979 19.5002 31.979C23.7002 31.979 27.5002 30.279 30.2002 27.579C32.6002 25.279 34.2002 22.079 34.5002 18.679L33.1002 19.879C32.8002 20.079 32.3002 20.079 32.0002 19.779ZM20.2002 12.979C19.8002 12.979 19.5002 12.679 19.5002 12.279C19.5002 11.879 19.8002 11.579 20.2002 11.579C20.6002 11.579 21.0002 11.879 21.0002 12.279C21.0002 12.679 20.6002 12.979 20.2002 12.979ZM25.4002 23.779C25.0668 23.779 24.8002 23.879 24.6002 24.079C24.4002 24.379 24.2002 24.679 24.2002 24.979C24.2002 25.279 24.4002 25.579 24.6002 25.879C24.8002 26.079 25.1002 26.179 25.5002 26.179C25.8002 26.179 26.1002 26.079 26.3002 25.879C26.5002 25.579 26.7002 25.279 26.7002 24.979C26.7002 24.679 26.5002 24.379 26.3002 24.079C26.1002 23.879 25.8002 23.779 25.5002 23.779C25.4335 23.779 25.4002 23.779 25.4002 23.779ZM15.5002 23.779C15.1002 23.779 14.8002 23.879 14.6002 24.079C14.4002 24.379 14.2002 24.679 14.2002 24.979C14.2002 25.279 14.4002 25.579 14.6002 25.879C14.8002 26.079 15.1002 26.179 15.5002 26.179C15.8002 26.179 16.1002 26.079 16.3002 25.879C16.5002 25.579 16.7002 25.279 16.7002 24.979C16.7002 24.679 16.5002 24.379 16.3002 24.079C16.1002 23.879 15.8002 23.779 15.5002 23.779ZM25.8002 16.979H14.7002L15.5002 19.579H24.9002L25.8002 16.979Z" fill="black"/>
</g>
</g>
<defs>
<clipPath id="clip0_2456_1797">
<rect width="38" height="33" fill="white" transform="translate(0.5 0.479004)"/>
</clipPath>
</defs>
</svg>
