<svg width="16" height="17" viewBox="0 0 16 17" fill="none" xmlns="http://www.w3.org/2000/svg">
<path d="M7.08881 0.695068C11.0018 0.695068 14.1776 3.87086 14.1776 7.78388C14.1776 11.6969 11.0018 14.8727 7.08881 14.8727C3.17579 14.8727 0 11.6969 0 7.78388C0 3.87086 3.17579 0.695068 7.08881 0.695068ZM7.08881 13.2974C10.135 13.2974 12.6023 10.8301 12.6023 7.78388C12.6023 4.73766 10.135 2.27036 7.08881 2.27036C4.04259 2.27036 1.57529 4.73766 1.57529 7.78388C1.57529 10.8301 4.04259 13.2974 7.08881 13.2974ZM13.7722 13.3534L16 15.5812L14.8861 16.6951L12.6583 14.4673L13.7722 13.3534Z" fill="#151515"/>
</svg>
