<svg width="39" height="29" viewBox="0 0 39 29" fill="none" xmlns="http://www.w3.org/2000/svg">
<g clip-path="url(#clip0_2456_1816)">
<mask id="mask0_2456_1816" style="mask-type:luminance" maskUnits="userSpaceOnUse" x="0" y="0" width="39" height="29">
<path d="M0.5 0.428955H38.5V28.569H0.5V0.428955Z" fill="white"/>
</mask>
<g mask="url(#mask0_2456_1816)">
<path fill-rule="evenodd" clip-rule="evenodd" d="M21.9999 27.679C21.9999 27.279 22.2999 26.979 22.6999 26.979H35.0999C35.5999 26.979 36.0999 26.779 36.3999 26.379C36.7999 26.079 36.9999 25.579 36.9999 25.079V7.479H1.8999V25.079C1.8999 25.579 2.0999 26.079 2.4999 26.379C2.7999 26.779 3.2999 26.979 3.7999 26.979H16.7999C17.1999 26.979 17.4999 27.279 17.4999 27.679C17.4999 28.079 17.1999 28.479 16.7999 28.479H3.7999C2.8999 28.479 1.9999 28.079 1.3999 27.479C0.799902 26.879 0.399902 25.979 0.399902 25.079V3.879C0.399902 2.879 0.799902 2.079 1.3999 1.479C1.9999 0.879004 2.8999 0.479004 3.7999 0.479004H35.0999C35.9999 0.479004 36.8999 0.879004 37.4999 1.479C38.0999 2.079 38.4999 2.879 38.4999 3.879V25.079C38.4999 25.979 38.0999 26.879 37.4999 27.479C36.8999 28.079 35.9999 28.479 35.0999 28.479H22.6999C22.2999 28.479 21.9999 28.079 21.9999 27.679ZM35.0999 1.979H3.7999C3.2999 1.979 2.7999 2.179 2.4999 2.479C2.0999 2.879 1.8999 3.279 1.8999 3.879V5.979H36.9999V3.879C36.9999 3.279 36.7999 2.879 36.3999 2.479C36.0999 2.179 35.5999 1.979 35.0999 1.979ZM19.7999 28.479C19.2999 28.479 18.9999 28.079 18.9999 27.679C18.9999 27.279 19.2999 26.979 19.7999 26.979C20.1999 26.979 20.4999 27.279 20.4999 27.679C20.4999 28.079 20.1999 28.479 19.7999 28.479ZM23.9999 14.379C24.3332 14.5123 24.5999 14.679 24.7999 14.879C25.1999 15.279 25.3999 15.779 25.3999 16.379V23.079C25.3999 23.679 25.1999 24.179 24.7999 24.579C24.3999 24.979 23.8999 25.179 23.2999 25.179H16.2999C15.6999 25.179 15.0999 24.979 14.6999 24.579C14.2999 24.179 14.0999 23.679 14.0999 23.079V16.379C14.0999 15.779 14.2999 15.279 14.6999 14.879C14.9666 14.679 15.2332 14.5123 15.4999 14.379V11.479C15.4999 10.779 15.7999 10.079 16.2999 9.679C16.6999 9.179 17.3999 8.879 18.0999 8.879H21.4999C22.1999 8.879 22.7999 9.179 23.2999 9.679C23.6999 10.079 23.9999 10.779 23.9999 11.479V14.379ZM22.4999 14.279V11.479C22.4999 11.179 22.3999 10.879 22.1999 10.679C21.9999 10.479 21.6999 10.379 21.4999 10.379H18.0999C17.7999 10.379 17.4999 10.479 17.2999 10.679C17.0999 10.879 16.9999 11.179 16.9999 11.479V14.279H22.4999ZM16.1999 15.779C15.9999 15.779 15.8666 15.8457 15.7999 15.979C15.6666 16.1123 15.5999 16.2457 15.5999 16.379V23.079C15.5999 23.279 15.6666 23.4457 15.7999 23.579C15.8666 23.6457 15.9999 23.679 16.1999 23.679H23.1999C23.3999 23.679 23.5666 23.6457 23.6999 23.579C23.8332 23.4457 23.8999 23.279 23.8999 23.079V16.379C23.8999 16.2457 23.8332 16.1123 23.6999 15.979C23.5666 15.8457 23.3999 15.779 23.1999 15.779H16.1999ZM20.4999 21.179C20.4999 21.579 20.1999 21.879 19.7999 21.879C19.2999 21.879 18.9999 21.579 18.9999 21.179V18.279C18.9999 17.879 19.2999 17.579 19.7999 17.579C20.1999 17.579 20.4999 17.879 20.4999 18.279V21.179ZM4.1999 4.679C3.7999 4.679 3.4999 4.379 3.4999 3.979C3.4999 3.579 3.7999 3.179 4.1999 3.179H5.8999C6.2999 3.179 6.6999 3.579 6.6999 3.979C6.6999 4.379 6.2999 4.679 5.8999 4.679H4.1999ZM12.9999 4.679C12.5999 4.679 12.2999 4.379 12.2999 3.979C12.2999 3.579 12.5999 3.179 12.9999 3.179H14.6999C15.0999 3.179 15.4999 3.579 15.4999 3.979C15.4999 4.379 15.0999 4.679 14.6999 4.679H12.9999ZM8.5999 4.679C8.1999 4.679 7.8999 4.379 7.8999 3.979C7.8999 3.579 8.1999 3.179 8.5999 3.179H10.2999C10.6999 3.179 11.0999 3.579 11.0999 3.979C11.0999 4.379 10.6999 4.679 10.2999 4.679H8.5999Z" fill="black"/>
</g>
</g>
<defs>
<clipPath id="clip0_2456_1816">
<rect width="38" height="28" fill="white" transform="translate(0.5 0.479004)"/>
</clipPath>
</defs>
</svg>
