<svg width="39" height="39" viewBox="0 0 39 39" fill="none" xmlns="http://www.w3.org/2000/svg">
<g clip-path="url(#clip0_2456_1835)">
<mask id="mask0_2456_1835" style="mask-type:luminance" maskUnits="userSpaceOnUse" x="0" y="0" width="39" height="39">
<path d="M0.5 0.388916H38.5V38.5689H0.5V0.388916Z" fill="white"/>
</mask>
<g mask="url(#mask0_2456_1835)">
<path fill-rule="evenodd" clip-rule="evenodd" d="M24.2002 36.879C22.0002 38.679 18.8002 38.879 15.4002 37.779C12.1002 36.679 8.70019 34.279 5.80019 30.879C5.80019 30.879 5.80019 30.8457 5.80019 30.779C2.90019 27.379 1.20019 23.579 0.700185 20.079C0.100185 16.579 0.900185 13.379 3.20019 11.479C3.70019 11.079 4.60018 11.179 5.50019 11.679C6.20018 12.079 7.00019 12.779 7.70018 13.679C7.70018 13.679 7.73352 13.7123 7.80019 13.779C8.50019 14.579 9.20018 15.779 9.80019 16.779C10.4002 18.079 10.7002 19.279 10.1002 19.779C9.40019 20.379 9.00019 21.179 8.90018 21.979C8.80018 22.879 9.10018 23.779 9.70018 24.479L12.7002 28.179C13.3002 28.879 14.1002 29.179 15.0002 29.279C15.8002 29.379 16.7002 29.179 17.4002 28.579C18.0002 28.079 19.1002 28.479 20.3002 29.379C21.8002 30.579 23.8002 32.579 24.5002 34.479C24.9002 35.479 24.8002 36.279 24.3002 36.779C24.3002 36.779 24.2669 36.8123 24.2002 36.879ZM28.3002 31.979C30.5002 30.879 32.4002 29.279 33.8002 27.279C35.8002 24.679 36.9002 21.379 36.9002 17.879C36.9002 13.479 35.2002 9.479 32.3002 6.679C29.5002 3.779 25.5002 1.979 21.2002 1.979C18.1002 1.979 15.3002 2.879 12.9002 4.379C11.2002 5.379 9.70018 6.779 8.50019 8.379C8.00019 9.179 6.80019 8.279 7.30019 7.479C8.60019 5.779 10.3002 4.279 12.1002 3.079C14.8002 1.479 17.9002 0.479004 21.2002 0.479004C26.0002 0.479004 30.3002 2.479 33.4002 5.579C36.5002 8.679 38.5002 13.079 38.5002 17.879C38.5002 21.779 37.2002 25.279 35.1002 28.179C33.5002 30.379 31.4002 32.179 29.0002 33.379C28.6002 33.579 28.2002 33.379 28.0002 32.979C27.8002 32.679 27.9002 32.179 28.3002 31.979ZM25.9002 34.479C25.5002 34.479 25.2002 34.179 25.2002 33.779C25.2002 33.379 25.5002 33.079 25.9002 33.079C26.3002 33.079 26.7002 33.379 26.7002 33.779C26.7002 34.179 26.3002 34.479 25.9002 34.479ZM6.40019 11.179C6.00019 11.179 5.60018 10.879 5.60018 10.479C5.60018 9.979 6.00019 9.679 6.40019 9.679C6.80019 9.679 7.10018 9.979 7.10018 10.479C7.10018 10.879 6.80019 11.179 6.40019 11.179ZM31.5002 21.979C31.5002 22.379 31.2002 22.779 30.8002 22.779C30.4002 22.779 30.0002 22.379 30.0002 21.979V18.579H26.1002C25.9669 18.579 25.8002 18.5457 25.6002 18.479C25.3002 18.179 25.3002 17.679 25.5002 17.379L30.1002 11.779C30.3002 11.579 30.5002 11.479 30.8002 11.479C31.2002 11.479 31.5002 11.879 31.5002 12.279V17.079H32.4002C32.9002 17.079 33.2002 17.479 33.2002 17.879C33.2002 18.279 32.9002 18.579 32.4002 18.579H31.5002V21.979ZM30.0002 14.379L27.7002 17.179H30.0002V14.379ZM18.3002 15.979C17.9002 15.979 17.6002 15.679 17.6002 15.279C17.6002 14.179 18.0002 13.279 18.6002 12.579C19.3002 11.879 20.3002 11.479 21.3002 11.479C22.3002 11.479 23.2002 11.879 23.9002 12.579C24.6002 13.279 25.0002 14.179 25.0002 15.279C25.0002 16.279 24.6002 17.079 23.9002 17.679C23.3002 18.279 22.6002 18.679 21.7002 19.179C20.9002 19.579 20.1002 20.479 19.6002 21.179H24.3002C24.7002 21.179 25.0002 21.579 25.0002 21.979C25.0002 22.379 24.7002 22.779 24.3002 22.779H18.3002C18.1669 22.779 18.0669 22.7457 18.0002 22.679C17.6002 22.479 17.4002 21.979 17.6002 21.579C17.6002 21.579 19.1002 18.779 21.0002 17.779C21.8002 17.379 22.5002 17.079 22.9002 16.579C23.3002 16.279 23.5002 15.879 23.5002 15.279C23.5002 14.679 23.3002 14.079 22.9002 13.679C22.5002 13.279 21.9002 12.979 21.3002 12.979C20.7002 12.979 20.1002 13.279 19.7002 13.679C19.3002 14.079 19.1002 14.679 19.1002 15.279C19.1002 15.679 18.7002 15.979 18.3002 15.979ZM15.9002 36.379C18.8002 37.279 21.5002 37.179 23.3002 35.679C23.3002 35.679 23.2002 35.379 23.1002 34.979C22.5002 33.379 20.7002 31.579 19.3002 30.579C18.7002 30.079 18.2002 29.779 18.2002 29.879C17.2002 30.679 16.1002 30.879 14.8002 30.779C13.6002 30.679 12.4002 30.179 11.6002 29.079L8.50019 25.379C7.60018 24.379 7.30019 23.079 7.40019 21.879C7.50019 20.679 8.00019 19.579 9.00019 18.679C8.60019 17.379 6.90019 15.079 6.60018 14.679C5.90019 13.979 5.30018 13.379 4.70018 12.979C4.40018 12.779 4.20018 12.679 4.10018 12.679C2.30018 14.279 1.70019 16.879 2.20019 19.879C2.60019 23.079 4.30018 26.679 7.00019 29.879C9.60019 33.079 12.9002 35.279 15.9002 36.379Z" fill="black"/>
</g>
</g>
<defs>
<clipPath id="clip0_2456_1835">
<rect width="38" height="38" fill="white" transform="translate(0.5 0.479004)"/>
</clipPath>
</defs>
</svg>
