<svg width="25" height="25" viewBox="0 0 25 25" fill="none" xmlns="http://www.w3.org/2000/svg">
<g clip-path="url(#clip0_2456_1715)">
<path d="M24.1602 10.479V2.55713C24.1602 2.05713 23.9805 1.62744 23.6211 1.26807C23.2617 0.908691 22.832 0.729004 22.332 0.729004H14.2461C13.9805 0.729004 13.6797 0.748535 13.3438 0.787598C13.0078 0.82666 12.7148 0.971191 12.4648 1.22119L0.605469 13.0806C0.464844 13.2368 0.355469 13.4048 0.277344 13.5845C0.199219 13.7642 0.160156 13.9556 0.160156 14.1587C0.160156 14.3618 0.199219 14.5532 0.277344 14.7329C0.355469 14.9126 0.464844 15.0728 0.605469 15.2134L9.67578 24.2837C9.81641 24.4243 9.97656 24.5337 10.1562 24.6118C10.3359 24.6899 10.5273 24.729 10.7305 24.729C10.9336 24.729 11.125 24.6899 11.3047 24.6118C11.4844 24.5337 11.6523 24.4243 11.8086 24.2837L23.668 12.4243C23.918 12.1743 24.0625 11.8774 24.1016 11.5337C24.1406 11.1899 24.1602 10.8384 24.1602 10.479ZM22.5898 11.3696L10.7305 23.229L1.66016 14.1587L13.5195 2.29932C13.5664 2.26807 13.6758 2.24854 13.8477 2.24072C14.0195 2.23291 14.1523 2.229 14.2461 2.229H14.5742H22.332C22.4258 2.229 22.5039 2.26025 22.5664 2.32275C22.6289 2.38525 22.6602 2.46338 22.6602 2.55713V10.5024C22.6602 10.6431 22.6562 10.8071 22.6484 10.9946C22.6406 11.1821 22.6211 11.3071 22.5898 11.3696ZM18.1602 3.729C17.332 3.729 16.625 4.02197 16.0391 4.60791C15.4531 5.19385 15.1602 5.90088 15.1602 6.729C15.1602 7.55713 15.4531 8.26416 16.0391 8.8501C16.625 9.43604 17.332 9.729 18.1602 9.729C18.9883 9.729 19.6953 9.43604 20.2812 8.8501C20.8672 8.26416 21.1602 7.55713 21.1602 6.729C21.1602 5.90088 20.8672 5.19385 20.2812 4.60791C19.6953 4.02197 18.9883 3.729 18.1602 3.729ZM18.1602 8.229C17.7539 8.229 17.4023 8.08447 17.1055 7.79541C16.8086 7.50635 16.6602 7.15088 16.6602 6.729C16.6602 6.30713 16.8086 5.95166 17.1055 5.6626C17.4023 5.37354 17.7539 5.229 18.1602 5.229C18.582 5.229 18.9375 5.37354 19.2266 5.6626C19.5156 5.95166 19.6602 6.30713 19.6602 6.729C19.6602 7.15088 19.5156 7.50635 19.2266 7.79541C18.9375 8.08447 18.582 8.229 18.1602 8.229Z" fill="#222222"/>
</g>
<defs>
<clipPath id="clip0_2456_1715">
<rect width="24" height="24" fill="white" transform="matrix(1 0 0 -1 0.160156 24.729)"/>
</clipPath>
</defs>
</svg>
