<svg width="12" height="11" viewBox="0 0 12 11" fill="none" xmlns="http://www.w3.org/2000/svg">
<path d="M12 1.20502C11.5506 1.40914 11.074 1.54313 10.586 1.60253C11.0943 1.29009 11.4847 0.795348 11.6685 0.205863C11.1852 0.499925 10.6565 0.707111 10.1051 0.818468C9.65602 0.327855 9.01622 0.0212402 8.30808 0.0212402C6.94842 0.0212402 5.84606 1.15157 5.84606 2.54568C5.84606 2.74357 5.86786 2.93622 5.90981 3.12104C3.86372 3.01572 2.04966 2.0107 0.835359 0.48335C0.623484 0.8562 0.502078 1.2899 0.502078 1.75249C0.502078 2.62836 0.93675 3.40102 1.59731 3.85376C1.20635 3.8412 0.823992 3.73292 0.482156 3.53796C0.482016 3.54854 0.482016 3.55911 0.482016 3.56973C0.482016 4.79288 1.33064 5.81323 2.45686 6.04515C2.09432 6.14625 1.71404 6.16105 1.34508 6.08841C1.65834 7.09136 2.56758 7.8212 3.64486 7.84163C2.80228 8.51869 1.7407 8.9223 0.587297 8.9223C0.388547 8.9223 0.192609 8.91033 0 8.88702C1.08952 9.6033 2.38359 10.0212 3.77391 10.0212C8.30236 10.0212 10.7786 6.17445 10.7786 2.83845C10.7786 2.72896 10.7763 2.62009 10.7715 2.51184C11.2535 2.15456 11.6695 1.71203 12 1.20502Z" fill="#0C0E12"/>
</svg>
