<svg width="16" height="17" viewBox="0 0 16 17" fill="none" xmlns="http://www.w3.org/2000/svg">
<path d="M8 0.695068C12.4182 0.695068 16 4.27679 16 8.69507C16 13.1133 12.4182 16.6951 8 16.6951C3.58172 16.6951 0 13.1133 0 8.69507C0 4.27679 3.58172 0.695068 8 0.695068ZM8.12776 11.8951C6.49944 11.8951 5.03346 12.59 4.01021 13.6995C5.10431 14.573 6.4912 15.0951 8 15.0951C9.5756 15.0951 11.0182 14.5257 12.1333 13.5815C11.1165 12.541 9.69752 11.8951 8.12776 11.8951ZM8 2.29507C4.46538 2.29507 1.6 5.16044 1.6 8.69507C1.6 10.1435 2.0812 11.4796 2.89246 12.5522C4.20511 11.1623 6.06515 10.2951 8.12776 10.2951C10.1153 10.2951 11.9146 11.1003 13.2174 12.4024C13.9621 11.3564 14.4 10.0769 14.4 8.69507C14.4 5.16044 11.5346 2.29507 8 2.29507ZM8 3.09507C9.76728 3.09507 11.2 4.52776 11.2 6.29507C11.2 8.06235 9.76728 9.49507 8 9.49507C6.23269 9.49507 4.8 8.06235 4.8 6.29507C4.8 4.52776 6.23269 3.09507 8 3.09507ZM8 4.69507C7.11632 4.69507 6.4 5.41141 6.4 6.29507C6.4 7.17875 7.11632 7.89507 8 7.89507C8.88368 7.89507 9.6 7.17875 9.6 6.29507C9.6 5.41141 8.88368 4.69507 8 4.69507Z" fill="#151515"/>
</svg>
